HIERARCHY
ROOT hip
{
  OFFSET 0 90.174 2.4664
  CHANNELS 6 Xposition Yposition Zposition Zrotation Xrotation Yrotation
  JOINT abdomen
  {
    OFFSET 0 -1.186 -1.5018
    CHANNELS 6 Xposition Yposition Zposition Zrotation Xrotation Yrotation
    JOINT abdomen2
    {
      OFFSET 0 9.964 0.2134
      CHANNELS 6 Xposition Yposition Zposition Zrotation Xrotation Yrotation
      JOINT chest
      {
        OFFSET 0 13.134 -3.2573
        CHANNELS 6 Xposition Yposition Zposition Zrotation Xrotation Yrotation
        JOINT neck
        {
          OFFSET 0 20.686 -1.6905
          CHANNELS 6 Xposition Yposition Zposition Zrotation Xrotation Yrotation
          JOINT head
          {
            OFFSET 0 7.238 -0.1237
            CHANNELS 6 Xposition Yposition Zposition Zrotation Xrotation Yrotation
            End Site
            {
              OFFSET 0 0 0
            }
          }
        }
        JOINT lCollar
        {
          OFFSET 1.7069 20.075 5.0056
          CHANNELS 6 Xposition Yposition Zposition Zrotation Xrotation Yrotation
          JOINT lShldr
          {
            OFFSET 13.6458 -0.047 -4.849
            CHANNELS 6 Xposition Yposition Zposition Zrotation Xrotation Yrotation
            JOINT lForeArm
            {
              OFFSET 28.3255 -0.9759 2.2888
              CHANNELS 6 Xposition Yposition Zposition Zrotation Xrotation Yrotation
              JOINT lHand
              {
                OFFSET 22.1583 -0.53 10.8316
                CHANNELS 6 Xposition Yposition Zposition Zrotation Xrotation Yrotation
                JOINT lThumb1
                {
                  OFFSET 0.786 0.112 2.5817
                  CHANNELS 6 Xposition Yposition Zposition Zrotation Xrotation Yrotation
                  JOINT lThumb2
                  {
                    OFFSET 0.3601 -0.878 4.2331
                    CHANNELS 6 Xposition Yposition Zposition Zrotation Xrotation Yrotation
                    JOINT lThumb2_End
                    {
                      OFFSET 1.8127 -1.216 2.2227
                      CHANNELS 6 Xposition Yposition Zposition Zrotation Xrotation Yrotation
                      End Site
                      {
                        OFFSET 0.0181 -0.0122 0.0222
                      }
                    }
                  }
                }
                JOINT lCarpal1
                {
                  OFFSET 0.9571 1.114 1.7695
                  CHANNELS 6 Xposition Yposition Zposition Zrotation Xrotation Yrotation
                  JOINT lIndex1
                  {
                    OFFSET 4.1246 0.487 4.1451
                    CHANNELS 6 Xposition Yposition Zposition Zrotation Xrotation Yrotation
                    JOINT lIndex2
                    {
                      OFFSET 3.4052 -1.454 2.7682
                      CHANNELS 6 Xposition Yposition Zposition Zrotation Xrotation Yrotation
                      JOINT lIndex2_End
                      {
                        OFFSET 1.4531 -1.795 1.2713
                        CHANNELS 6 Xposition Yposition Zposition Zrotation Xrotation Yrotation
                        End Site
                        {
                          OFFSET 0.0145 -0.0179 0.0127
                        }
                      }
                    }
                  }
                  JOINT lMid1
                  {
                    OFFSET 5.6954 0.21 2.1184
                    CHANNELS 6 Xposition Yposition Zposition Zrotation Xrotation Yrotation
                    JOINT lMid2
                    {
                      OFFSET 3.9766 -1.54 2.3863
                      CHANNELS 6 Xposition Yposition Zposition Zrotation Xrotation Yrotation
                      JOINT lMid2_End
                      {
                        OFFSET 1.4042 -1.926 1.125
                        CHANNELS 6 Xposition Yposition Zposition Zrotation Xrotation Yrotation
                        End Site
                        {
                          OFFSET 0.014 -0.0193 0.0113
                        }
                      }
                    }
                  }
                }
                JOINT lCarpal2
                {
                  OFFSET 2.0956 0.66 -0.3894
                  CHANNELS 6 Xposition Yposition Zposition Zrotation Xrotation Yrotation
                  JOINT lRing1
                  {
                    OFFSET 5.0395 -0.09 2.4971
                    CHANNELS 6 Xposition Yposition Zposition Zrotation Xrotation Yrotation
                    JOINT lRing2
                    {
                      OFFSET 3.7921 -1.552 1.4806
                      CHANNELS 6 Xposition Yposition Zposition Zrotation Xrotation Yrotation
                      JOINT lRing2_End
                      {
                        OFFSET 1.4655 -1.808 0.9609
                        CHANNELS 6 Xposition Yposition Zposition Zrotation Xrotation Yrotation
                        End Site
                        {
                          OFFSET 0.0147 -0.0181 0.0096
                        }
                      }
                    }
                  }
                  JOINT lPinky1
                  {
                    OFFSET 4.9141 -1.269 0.3591
                    CHANNELS 6 Xposition Yposition Zposition Zrotation Xrotation Yrotation
                    JOINT lPinky2
                    {
                      OFFSET 3.1477 -1.685 0.8462
                      CHANNELS 6 Xposition Yposition Zposition Zrotation Xrotation Yrotation
                      JOINT lPinky2_End
                      {
                        OFFSET 0.8055 -1.585 0.7955
                        CHANNELS 6 Xposition Yposition Zposition Zrotation Xrotation Yrotation
                        End Site
                        {
                          OFFSET 0.0081 -0.0158 0.008
                        }
                      }
                    }
                  }
                }
              }
            }
          }
        }
        JOINT rCollar
        {
          OFFSET -1.7069 20.075 5.0056
          CHANNELS 6 Xposition Yposition Zposition Zrotation Xrotation Yrotation
          JOINT rShldr
          {
            OFFSET -13.6458 -0.047 -4.849
            CHANNELS 6 Xposition Yposition Zposition Zrotation Xrotation Yrotation
            JOINT rForeArm
            {
              OFFSET -28.3255 -0.9759 2.2888
              CHANNELS 6 Xposition Yposition Zposition Zrotation Xrotation Yrotation
              JOINT rHand
              {
                OFFSET -22.1583 -0.53 10.8316
                CHANNELS 6 Xposition Yposition Zposition Zrotation Xrotation Yrotation
                JOINT rThumb1
                {
                  OFFSET -0.786 0.112 2.5817
                  CHANNELS 6 Xposition Yposition Zposition Zrotation Xrotation Yrotation
                  JOINT rThumb2
                  {
                    OFFSET -0.3601 -0.878 4.2331
                    CHANNELS 6 Xposition Yposition Zposition Zrotation Xrotation Yrotation
                    JOINT rThumb2_End
                    {
                      OFFSET -1.8127 -1.216 2.2227
                      CHANNELS 6 Xposition Yposition Zposition Zrotation Xrotation Yrotation
                      End Site
                      {
                        OFFSET -0.0181 -0.0122 0.0222
                      }
                    }
                  }
                }
                JOINT rCarpal1
                {
                  OFFSET -0.9571 1.114 1.7695
                  CHANNELS 6 Xposition Yposition Zposition Zrotation Xrotation Yrotation
                  JOINT rIndex1
                  {
                    OFFSET -4.1246 0.487 4.1451
                    CHANNELS 6 Xposition Yposition Zposition Zrotation Xrotation Yrotation
                    JOINT rIndex2
                    {
                      OFFSET -3.4052 -1.454 2.7682
                      CHANNELS 6 Xposition Yposition Zposition Zrotation Xrotation Yrotation
                      JOINT rIndex2_End
                      {
                        OFFSET -1.4531 -1.795 1.2713
                        CHANNELS 6 Xposition Yposition Zposition Zrotation Xrotation Yrotation
                        End Site
                        {
                          OFFSET -0.0145 -0.018 0.0127
                        }
                      }
                    }
                  }
                  JOINT rMid1
                  {
                    OFFSET -5.6954 0.21 2.1184
                    CHANNELS 6 Xposition Yposition Zposition Zrotation Xrotation Yrotation
                    JOINT rMid2
                    {
                      OFFSET -3.9766 -1.54 2.3863
                      CHANNELS 6 Xposition Yposition Zposition Zrotation Xrotation Yrotation
                      JOINT rMid2_End
                      {
                        OFFSET -1.4042 -1.926 1.125
                        CHANNELS 6 Xposition Yposition Zposition Zrotation Xrotation Yrotation
                        End Site
                        {
                          OFFSET -0.014 -0.0193 0.0113
                        }
                      }
                    }
                  }
                }
                JOINT rCarpal2
                {
                  OFFSET -2.0956 0.66 -0.3894
                  CHANNELS 6 Xposition Yposition Zposition Zrotation Xrotation Yrotation
                  JOINT rRing1
                  {
                    OFFSET -5.0395 -0.09 2.4971
                    CHANNELS 6 Xposition Yposition Zposition Zrotation Xrotation Yrotation
                    JOINT rRing2
                    {
                      OFFSET -3.7921 -1.552 1.4806
                      CHANNELS 6 Xposition Yposition Zposition Zrotation Xrotation Yrotation
                      JOINT rRing2_End
                      {
                        OFFSET -1.4655 -1.808 0.9609
                        CHANNELS 6 Xposition Yposition Zposition Zrotation Xrotation Yrotation
                        End Site
                        {
                          OFFSET -0.0147 -0.0181 0.0096
                        }
                      }
                    }
                  }
                  JOINT rPinky1
                  {
                    OFFSET -4.9141 -1.269 0.3592
                    CHANNELS 6 Xposition Yposition Zposition Zrotation Xrotation Yrotation
                    JOINT rPinky2
                    {
                      OFFSET -3.1477 -1.685 0.8462
                      CHANNELS 6 Xposition Yposition Zposition Zrotation Xrotation Yrotation
                      JOINT rPinky2_End
                      {
                        OFFSET -0.8055 -1.585 0.7955
                        CHANNELS 6 Xposition Yposition Zposition Zrotation Xrotation Yrotation
                        End Site
                        {
                          OFFSET -0.0081 -0.0158 0.008
                        }
                      }
                    }
                  }
                }
              }
            }
          }
        }
      }
    }
  }
  JOINT lThigh
  {
    OFFSET 8.367 -8.2066 0.5982
    CHANNELS 6 Xposition Yposition Zposition Zrotation Xrotation Yrotation
    JOINT lShin
    {
      OFFSET 2.1923 -43.463 -0.4932
      CHANNELS 6 Xposition Yposition Zposition Zrotation Xrotation Yrotation
      JOINT lFoot
      {
        OFFSET 0.7333 -45.8593 -2.6451
        CHANNELS 6 Xposition Yposition Zposition Zrotation Xrotation Yrotation
        End Site
        {
          OFFSET 2.6618 -4.2699 12.3931
        }
      }
    }
  }
  JOINT rThigh
  {
    OFFSET -8.367 -8.2066 0.5982
    CHANNELS 6 Xposition Yposition Zposition Zrotation Xrotation Yrotation
    JOINT rShin
    {
      OFFSET -2.1923 -43.463 -0.4931
      CHANNELS 6 Xposition Yposition Zposition Zrotation Xrotation Yrotation
      JOINT rFoot
      {
        OFFSET -0.7333 -45.8593 -2.6451
        CHANNELS 6 Xposition Yposition Zposition Zrotation Xrotation Yrotation
        End Site
        {
          OFFSET -2.6618 -4.2699 12.3931
        }
      }
    }
  }
}
MOTION
Frames:	4
Frame Time:	0.0333333
42.1468 -1.84916 70.2936 4.1771e-006 76.1488 -5.05563e-006 0 -1.186 -1.5018 -0.46445 2.98518 -0.194168 0 9.964 0.2134 -0.92063 5.97182 -0.364805 0 13.134 -3.2573 -0.920631 5.97184 -0.364805 0 20.686 -1.6905 -0.00226784 -3.23077 -44.0018 0 7.238 -0.1237 -2.47171 -16.8607 -31.4955 1.7069 20.075 5.0056 -3.72047 8.86725 -6.69261 13.6458 -0.047 -4.849 -31.4605 -46.0783 -1.98904 28.3255 -0.9759 2.2888 32.8616 -20.3772 -25.057 22.1583 -0.53 10.8316 8.10501 -39.8278 -23.0892 0.786 0.112 2.5817 9.44227e-016 -1.49089e-016 -9.54166e-015 0.3601 -0.878 4.2331 1.25337e-007 1.47482e-008 -1.28415e-006 1.8127 -1.216 2.2227 -4.96962e-017 -9.93923e-016 -9.54166e-015 0.9571 1.114 1.7695 8.94531e-016 1.98785e-016 -3.18055e-015 4.1246 0.487 4.1451 9.93923e-017 -1.39149e-015 -0 3.4052 -1.454 2.7682 1.25337e-007 1.47482e-008 -1.28415e-006 1.4531 -1.795 1.2713 5.46658e-016 -4.96962e-017 -9.54166e-015 5.6954 0.21 2.1184 9.93923e-017 -1.39149e-015 -0 3.9766 -1.54 2.3863 1.25337e-007 1.47482e-008 -1.28415e-006 1.4042 -1.926 1.125 5.46658e-016 -4.96962e-017 -9.54166e-015 2.0956 0.66 -0.3894 8.94531e-016 1.98785e-016 -3.18055e-015 5.0395 -0.09 2.4971 9.93923e-017 -1.39149e-015 -0 3.7921 -1.552 1.4806 1.25337e-007 1.47482e-008 -1.28415e-006 1.4655 -1.808 0.9609 5.46658e-016 -4.96962e-017 -9.54166e-015 4.9141 -1.269 0.3591 9.93923e-017 -1.39149e-015 -0 3.1477 -1.685 0.8462 1.25337e-007 1.47482e-008 -1.28415e-006 0.8055 -1.585 0.7955 5.46658e-016 -4.96962e-017 -9.54166e-015 -1.7069 20.075 5.0056 51.1593 -13.974 4.21389 -13.6458 -0.047 -4.849 35.2964 -38.5109 4.34578 -28.3255 -0.9759 2.2888 -31.6649 -20.2462 16.7419 -22.1583 -0.53 10.8316 -0.75555 -17.6687 30.0437 -0.786 0.112 2.5817 -2.11604e-007 -2.41712e-008 -1.34876e-008 -0.3601 -0.878 4.2331 2.65555e-007 3.99457e-008 -8.3293e-007 -1.8127 -1.216 2.2227 -3.26524e-007 -8.94759e-007 -4.27498e-008 -0.9571 1.114 1.7695 -1.76556e-031 -3.18055e-015 -3.18055e-015 -4.1246 0.487 4.1451 -2.11604e-007 -2.41712e-008 -1.34876e-008 -3.4052 -1.454 2.7682 2.65555e-007 3.99457e-008 -8.3293e-007 -1.4531 -1.795 1.2713 -3.26524e-007 -8.94759e-007 -4.27498e-008 -5.6954 0.21 2.1184 -2.11604e-007 -2.41712e-008 -1.34876e-008 -3.9766 -1.54 2.3863 2.65555e-007 3.99457e-008 -8.3293e-007 -1.4042 -1.926 1.125 -3.26524e-007 -8.94759e-007 -4.27498e-008 -2.0956 0.66 -0.3894 -1.76556e-031 -3.18055e-015 -3.18055e-015 -5.0395 -0.09 2.4971 -2.11604e-007 -2.41712e-008 -1.34876e-008 -3.7921 -1.552 1.4806 2.65555e-007 3.99457e-008 -8.3293e-007 -1.4655 -1.808 0.9609 -3.26524e-007 -8.94759e-007 -4.27498e-008 -4.9141 -1.269 0.3592 -2.11604e-007 -2.41712e-008 -1.34876e-008 -3.1477 -1.685 0.8462 2.65555e-007 3.99457e-008 -8.3293e-007 -0.8055 -1.585 0.7955 -3.26524e-007 -8.94759e-007 -4.27498e-008 8.367 -8.2066 0.5982 3.53722 13.6576 47.4995 2.1923 -43.463 -0.4932 -4.68204 -1.94376 21.619 0.7333 -45.8593 -2.6451 10.5582 46.2347 -7.81325 -8.367 -8.2066 0.5982 -5.86597 9.94546 -52.864 -2.1923 -43.463 -0.4931 6.67061 11.1718 -22.8964 -0.7333 -45.8593 -2.6451 -21.0332 47.9571 14.7184 
42.1493 -1.86073 70.2921 -3.74679e-014 76.2989 -1e-006 0 -1.186 -1.5018 -0.456111 2.861 -0.194667 0 9.964 0.2134 -0.904168 5.72343 -0.367178 7.10543e-015 13.134 -3.2573 -0.904169 5.72348 -0.367178 0 20.686 -1.6905 -0.00221913 -2.95566 -44.0018 3.55271e-015 7.238 -0.1237 -2.3404 -16.7863 -31.2042 1.7069 20.075 5.0056 -3.94438 8.42782 -6.61883 13.6458 -0.047 -4.849 -31.4605 -46.0783 -1.98904 28.3255 -0.9759 2.2888 32.8559 -20.3715 -25.044 22.1583 -0.53 10.8316 7.49079 -39.1457 -23.6843 0.786 0.112 2.5817 -7.35134e-007 -4.82523e-007 -5.40731e-009 0.3601 -0.878 4.2331 1.06122e-007 -2.51454e-007 -6.44341e-006 1.8127 -1.216 2.2227 6.95746e-016 -3.97569e-016 6.36111e-015 0.9571 1.114 1.7695 9.93923e-017 -1.49089e-016 -3.18055e-015 4.1246 0.487 4.1451 -7.35134e-007 -4.82523e-007 -5.40731e-009 3.4052 -1.454 2.7682 1.06122e-007 -2.51454e-007 -6.44341e-006 1.4531 -1.795 1.2713 8.69683e-016 4.96962e-017 3.18055e-015 5.6954 0.21 2.1184 -7.35134e-007 -4.82523e-007 -5.40731e-009 3.9766 -1.54 2.3863 1.06122e-007 -2.51454e-007 -6.44341e-006 1.4042 -1.926 1.125 8.69683e-016 4.96962e-017 3.18055e-015 2.0956 0.66 -0.3894 9.93923e-017 -1.49089e-016 -3.18055e-015 5.0395 -0.09 2.4971 -7.35134e-007 -4.82523e-007 -5.40731e-009 3.7921 -1.552 1.4806 1.06122e-007 -2.51454e-007 -6.44341e-006 1.4655 -1.808 0.9609 8.69683e-016 4.96962e-017 3.18055e-015 4.9141 -1.269 0.3591 -7.35134e-007 -4.82523e-007 -5.40731e-009 3.1477 -1.685 0.8462 1.06122e-007 -2.51454e-007 -6.44341e-006 0.8055 -1.585 0.7955 8.69683e-016 4.96962e-017 3.18055e-015 -1.7069 20.075 5.0056 51.0719 -13.8088 3.46439 -13.6458 -0.047 -4.849 35.7551 -38.6331 4.90393 -28.3255 -0.9759 2.2888 -31.7913 -20.3962 16.8246 -22.1583 -0.53 10.8316 -0.549646 -17.1152 30.1821 -0.786 0.112 2.5817 0 0 -1.59028e-015 -0.3601 -0.878 4.2331 1.98785e-016 0 -1.59028e-015 -1.8127 -1.216 2.2227 1.98785e-016 0 -1.59028e-015 -0.9571 1.114 1.7695 1.98785e-016 1.59028e-015 -3.18055e-015 -4.1246 0.487 4.1451 -1.98785e-016 1.59028e-015 4.77083e-015 -3.4052 -1.454 2.7682 3.97569e-016 0 -1.59028e-015 -1.4531 -1.795 1.2713 -3.97569e-016 -1.59028e-015 -0 -5.6954 0.21 2.1184 -1.98785e-016 1.59028e-015 4.77083e-015 -3.9766 -1.54 2.3863 3.97569e-016 0 -1.59028e-015 -1.4042 -1.926 1.125 -3.97569e-016 -1.59028e-015 -0 -2.0956 0.66 -0.3894 1.98785e-016 1.59028e-015 -3.18055e-015 -5.0395 -0.09 2.4971 -1.98785e-016 1.59028e-015 4.77083e-015 -3.7921 -1.552 1.4806 3.97569e-016 0 -1.59028e-015 -1.4655 -1.808 0.9609 -3.97569e-016 -1.59028e-015 -0 -4.9141 -1.269 0.3592 -1.98785e-016 1.59028e-015 4.77083e-015 -3.1477 -1.685 0.8462 3.97569e-016 0 -1.59028e-015 -0.8055 -1.585 0.7955 -3.97569e-016 -1.59028e-015 -0 8.367 -8.2066 0.5982 3.48282 13.4916 47.4347 2.1923 -43.463 -0.4932 -4.68209 -1.92135 21.6184 0.7333 -45.8593 -2.6451 10.5504 46.224 -7.80862 -8.367 -8.2066 0.5982 -5.83823 9.68774 -52.3585 -2.1923 -43.463 -0.4931 6.67136 11.1837 -22.8962 -0.7333 -45.8593 -2.6451 -20.3773 48.1058 13.9366 
42.1518 -1.8723 70.2905 2.76141e-015 76.4489 -1e-006 -7.10543e-015 -1.186 -1.5018 -0.44775 2.7369 -0.195239 0 9.964 0.2134 -0.887672 5.47525 -0.369665 -1.42109e-014 13.134 -3.2573 -0.887672 5.47524 -0.369665 -7.10543e-015 20.686 -1.6905 -0.00227156 -2.68014 -44.0018 3.55271e-015 7.238 -0.1237 -2.20955 -16.7113 -30.9131 1.7069 20.075 5.0056 -4.16745 7.98808 -6.54687 13.6458 -0.047 -4.849 -31.4605 -46.0783 -1.98904 28.3255 -0.9759 2.2888 32.8502 -20.3657 -25.031 22.1583 -0.53 10.8316 6.89164 -38.459 -24.2643 0.786 0.112 2.5817 4.96962e-016 -9.93923e-017 -0 0.3601 -0.878 4.2331 6.21202e-016 -6.95746e-016 -3.18055e-015 1.8127 -1.216 2.2227 -6.21202e-016 -3.47873e-016 -3.18055e-015 0.9571 1.114 1.7695 4.96962e-016 -7.45443e-017 -0 4.1246 0.487 4.1451 9.93923e-016 -1.63997e-015 3.18055e-015 3.4052 -1.454 2.7682 5.71506e-016 -2.73329e-016 -3.18055e-015 1.4531 -1.795 1.2713 -4.72114e-016 -5.71506e-016 -6.36111e-015 5.6954 0.21 2.1184 9.93923e-016 -1.63997e-015 3.18055e-015 3.9766 -1.54 2.3863 5.71506e-016 -2.73329e-016 -3.18055e-015 1.4042 -1.926 1.125 -4.72114e-016 -5.71506e-016 -6.36111e-015 2.0956 0.66 -0.3894 4.96962e-016 -7.45443e-017 -0 5.0395 -0.09 2.4971 9.93923e-016 -1.63997e-015 3.18055e-015 3.7921 -1.552 1.4806 5.71506e-016 -2.73329e-016 -3.18055e-015 1.4655 -1.808 0.9609 -4.72114e-016 -5.71506e-016 -6.36111e-015 4.9141 -1.269 0.3591 9.93923e-016 -1.63997e-015 3.18055e-015 3.1477 -1.685 0.8462 5.71506e-016 -2.73329e-016 -3.18055e-015 0.8055 -1.585 0.7955 -4.72114e-016 -5.71506e-016 -6.36111e-015 -1.7069 20.075 5.0056 50.9869 -13.6426 2.71586 -13.6458 -0.047 -4.849 36.2159 -38.7518 5.46419 -28.3255 -0.9759 2.2888 -31.9175 -20.5463 16.907 -22.1583 -0.53 10.8316 -0.345762 -16.5613 30.318 -0.786 0.112 2.5817 -4.2321e-007 -4.83451e-008 -2.69347e-008 -0.3601 -0.878 4.2331 5.96354e-016 0 -1.59028e-015 -1.8127 -1.216 2.2227 -4.2321e-007 -4.83451e-008 -2.69347e-008 -0.9571 1.114 1.7695 3.97569e-016 1.59028e-015 -3.18055e-015 -4.1246 0.487 4.1451 -4.2321e-007 -4.83451e-008 -2.69347e-008 -3.4052 -1.454 2.7682 3.97569e-016 7.95139e-016 -1.59028e-015 -1.4531 -1.795 1.2713 -4.2321e-007 -4.83451e-008 -2.69347e-008 -5.6954 0.21 2.1184 -4.2321e-007 -4.83451e-008 -2.69347e-008 -3.9766 -1.54 2.3863 3.97569e-016 7.95139e-016 -1.59028e-015 -1.4042 -1.926 1.125 -4.2321e-007 -4.83451e-008 -2.69347e-008 -2.0956 0.66 -0.3894 3.97569e-016 1.59028e-015 -3.18055e-015 -5.0395 -0.09 2.4971 -4.2321e-007 -4.83451e-008 -2.69347e-008 -3.7921 -1.552 1.4806 3.97569e-016 7.95139e-016 -1.59028e-015 -1.4655 -1.808 0.9609 -4.2321e-007 -4.83451e-008 -2.69347e-008 -4.9141 -1.269 0.3592 -4.2321e-007 -4.83451e-008 -2.69347e-008 -3.1477 -1.685 0.8462 3.97569e-016 7.95139e-016 -1.59028e-015 -0.8055 -1.585 0.7955 -4.2321e-007 -4.83451e-008 -2.69347e-008 8.367 -8.2066 0.5982 3.42917 13.3248 47.3697 2.1923 -43.463 -0.4932 -4.68217 -1.89673 21.6178 0.7333 -45.8593 -2.6451 10.5418 46.2124 -7.80361 -8.367 -8.2066 0.5982 -5.80859 9.43001 -51.8532 -2.1923 -43.463 -0.4931 6.67217 11.1964 -22.8957 -0.7333 -45.8593 -2.6451 -19.716 48.2483 13.1495 
42.1542 -1.88387 70.2888 1.35303e-014 76.599 -1e-006 0 -1.186 -1.5018 -0.439364 2.61289 -0.195882 7.10543e-015 9.964 0.2134 -0.871134 5.22719 -0.372259 0 13.134 -3.2573 -0.871135 5.2272 -0.372258 -7.10543e-015 20.686 -1.6905 -0.00240837 -2.40492 -44.0018 0 7.238 -0.1237 -2.07912 -16.6356 -30.6224 1.7069 20.075 5.0056 -4.38972 7.54817 -6.47672 13.6458 -0.047 -4.849 -31.4606 -46.0783 -1.98905 28.3255 -0.9759 2.2888 32.8444 -20.3599 -25.0179 22.1583 -0.53 10.8316 6.30714 -37.7678 -24.8295 0.786 0.112 2.5817 4.47266e-016 -5.2181e-016 3.18055e-015 0.3601 -0.878 4.2331 -3.47873e-016 1.73937e-016 3.18055e-015 1.8127 -1.216 2.2227 4.47266e-016 -2.98177e-016 -0 0.9571 1.114 1.7695 4.47266e-016 -2.23633e-016 3.18055e-015 4.1246 0.487 4.1451 -9.93923e-017 1.36664e-016 3.18055e-015 3.4052 -1.454 2.7682 4.47266e-016 3.10601e-016 -0 1.4531 -1.795 1.2713 5.96354e-016 9.93923e-017 -0 5.6954 0.21 2.1184 -9.93923e-017 1.36664e-016 3.18055e-015 3.9766 -1.54 2.3863 4.47266e-016 3.10601e-016 -0 1.4042 -1.926 1.125 5.96354e-016 9.93923e-017 -0 2.0956 0.66 -0.3894 4.47266e-016 -2.23633e-016 3.18055e-015 5.0395 -0.09 2.4971 -9.93923e-017 1.36664e-016 3.18055e-015 3.7921 -1.552 1.4806 4.47266e-016 3.10601e-016 -0 1.4655 -1.808 0.9609 5.96354e-016 9.93923e-017 -0 4.9141 -1.269 0.3591 -9.93923e-017 1.36664e-016 3.18055e-015 3.1477 -1.685 0.8462 4.47266e-016 3.10601e-016 -0 0.8055 -1.585 0.7955 5.96354e-016 9.93923e-017 -0 -1.7069 20.075 5.0056 50.9042 -13.4754 1.96821 -13.6458 -0.047 -4.849 36.679 -38.867 6.02653 -28.3255 -0.9759 2.2888 -32.0437 -20.6966 16.9892 -22.1583 -0.53 10.8316 -0.143856 -16.0069 30.4514 -0.786 0.112 2.5817 -3.38599e-007 4.0663e-007 -7.87066e-007 -0.3601 -0.878 4.2331 -1.14905e-007 -8.70595e-007 -2.93369e-008 -1.8127 -1.216 2.2227 -2.11605e-007 -2.41751e-008 -1.34626e-008 -0.9571 1.114 1.7695 1.98785e-016 -7.95139e-016 3.18055e-015 -4.1246 0.487 4.1451 -3.38599e-007 4.0663e-007 -7.87066e-007 -3.4052 -1.454 2.7682 -1.14905e-007 -8.70595e-007 -2.93369e-008 -1.4531 -1.795 1.2713 -2.11605e-007 -2.41751e-008 -1.34626e-008 -5.6954 0.21 2.1184 -3.38599e-007 4.0663e-007 -7.87066e-007 -3.9766 -1.54 2.3863 -1.14905e-007 -8.70595e-007 -2.93369e-008 -1.4042 -1.926 1.125 -2.11605e-007 -2.41751e-008 -1.34626e-008 -2.0956 0.66 -0.3894 1.98785e-016 -7.95139e-016 3.18055e-015 -5.0395 -0.09 2.4971 -3.38599e-007 4.0663e-007 -7.87066e-007 -3.7921 -1.552 1.4806 -1.14905e-007 -8.70595e-007 -2.93369e-008 -1.4655 -1.808 0.9609 -2.11605e-007 -2.41751e-008 -1.34626e-008 -4.9141 -1.269 0.3592 -3.38599e-007 4.0663e-007 -7.87066e-007 -3.1477 -1.685 0.8462 -1.14905e-007 -8.70595e-007 -2.93369e-008 -0.8055 -1.585 0.7955 -2.11605e-007 -2.41751e-008 -1.34626e-008 8.367 -8.2066 0.5982 3.37399 13.1593 47.3048 2.1923 -43.463 -0.4932 -4.68225 -1.87577 21.6172 0.7333 -45.8593 -2.6451 10.5345 46.2024 -7.79928 -8.367 -8.2066 0.5982 -5.77697 9.17236 -51.3482 -2.1923 -43.463 -0.4931 6.67307 11.2098 -22.895 -0.7333 -45.8593 -2.6451 -19.0494 48.3845 12.3574 
